<?xml version="1.0" encoding="UTF-8"?>
<svg id="Layer_1" xmlns="http://www.w3.org/2000/svg" version="1.1" viewBox="0 0 612 792">
  <!-- Generator: Adobe Illustrator 29.8.3, SVG Export Plug-In . SVG Version: 2.1.1 Build 3)  -->
  <defs>
    <style>
      .st0 {
        fill: none;
        stroke: #fff;
        stroke-miterlimit: 10;
      }

      .st1 {
        fill: #bfab99;
      }

      .st2 {
        fill: #fff;
      }
    </style>
  </defs>
  <g id="KBiBL6">
    <g>
      <path class="st2" d="M-1161.44,1466.16v1000h-1000v-1000h1000ZM-1308.34,1945.26l32.23-9.26,1.68-2.32v-262.04c-4.09-18.28-26.54-20.07-41.83-23.16-105.69-21.4-213.55-33.17-319.7-52.12l-141.03,36.84-159.72-23.82-102.28,26.74c-4.4,1.66-8.1,4.71-9.99,9.01,1.78,99.26,2.02,198.32,3.5,297.58.74,49.71.74,100.36,3.03,149.97.64,13.98-2.83,19.81,8.49,30.51,2.49,2.36,6.36,5.13,9.54,6.46l117.3,29.48,5.72,18.5,51.97,12.54c-.11,1.42-1.47,1.57-2.46,2.03-22.83,10.49-71.08,18.15-75.28,48.72-.67,4.91-1.1,17.54,3.47,20.02l295.79,74.13,211.48-82.91c-4.6-8.7-5.99-15.86-12.97-23.52-7.98-8.76-17.35-10.74-27.01-16.97l16.84-7.14.27-53.23,58.82-14.68,71.12-104.88,1.03-86.47Z"/>
      <path d="M-1308.34,1945.26l-1.03,86.47-71.12,104.88-58.82,14.68-.27,53.23-16.84,7.14c9.65,6.23,19.02,8.21,27.01,16.97,6.98,7.66,8.37,14.82,12.97,23.52l-211.48,82.91-295.79-74.13c-4.57-2.48-4.14-15.11-3.47-20.02,4.2-30.57,52.45-38.23,75.28-48.72.99-.46,2.35-.61,2.46-2.03l-51.97-12.54-5.72-18.5-117.3-29.48c-3.18-1.34-7.04-4.11-9.54-6.46-11.32-10.7-7.84-16.53-8.49-30.51-2.29-49.61-2.29-100.26-3.03-149.97-1.48-99.26-1.72-198.32-3.5-297.58,1.89-4.3,5.59-7.34,9.99-9.01l102.28-26.74,159.72,23.82,141.03-36.84c106.16,18.94,214.02,30.72,319.7,52.12,15.29,3.1,37.73,4.88,41.84,23.16v262.04s-1.69,2.32-1.69,2.32l-32.23,9.26ZM-1439.44,1701.66v277.5l162.9-45.1-.67-265.63c-7.46-13.84-25.98-15.16-40.04-17.96-105.19-20.94-212.2-33.39-317.8-52.21l-135.4,35.39,310.05,46.96c6.43-.26,19.89,16.16,20.96,21.04ZM-1545.44,2237.15l103.03-33.46.97-2.03-.78-500.22c-3.82-6.33-7.98-12.52-13.85-17.15l-480.08-72.78-89.31,23.14-.99,1.5,480.4,79.11c8.87,2.59,8.32,12.87,9.64,20.36v468.08c-1.75,11.57-.68,24.21-9.04,33.45ZM-2027.18,2125.76c3.41,2.12,9.57,2.35,13.31,4.26,150.31,37.29,300.88,74.51,451.6,111.45,18.2,1.24,20.9-18.94,22.87-32.78v-472.09c-.96-5.67-.51-15.71-6.81-18.19-4.33-1.7-16.43-2.98-22-4-133.37-24.18-267.93-44.11-401.68-65.84-18.5-3.01-38.43-8.76-57.18-10.3-8.97-.74-18.14-.43-19.37,10.37-2.39,21.02.8,47.6,1.04,68.96,1.45,130.08,3.15,259.9,4.94,390.06.57,4.78,9.16,15.52,13.28,18.08ZM-1439.44,1984.66v163.5l57.72-13.29,70.73-104.76c.64-20.31,1.05-41.08.6-61.49-.15-6.73-2.33-14.61-.04-21.45l-129,37.49ZM-1796.02,2207.59c.65-.72,2.42-1.35,2.58-1.94.77-2.9-3.62-1.88-4.77-2.21-15.37-4.45-30.95-8.25-46.68-11.24-19.99,8.29-63.42,18.02-74.96,37.05-5.11,8.42-8.04,20.56-2.56,29.38l294.76,73.28,207.16-81.37c.26-.87-2.69-8.97-3.4-10.43-5.57-11.5-13.43-16.37-24.57-21.43-2.78-1.26-5.84-2.6-8.99-2.52l1-1.97-3.57-.95c-24.1,7.16-48.03,15.1-71.9,22.86-8.45,2.75-22.61,9.92-30.76,8.8-5.32-.73-11.64-4.15-17.24-4.76l-12.23,12.03-19.57-3.85c-4.05,2.17-8.76,10.76-13.17,10.89l-175.55-45.07c-1.4-1.66,3.16-5.15,4.42-6.55Z"/>
      <path class="st2" d="M-2027.18,2125.76c-4.12-2.56-12.71-13.31-13.28-18.08-1.79-130.16-3.49-259.98-4.94-390.06-.24-21.36-3.43-47.94-1.04-68.96,1.23-10.8,10.4-11.11,19.37-10.37,18.75,1.54,38.68,7.29,57.18,10.3,133.75,21.73,268.31,41.66,401.68,65.84,5.58,1.01,17.68,2.29,22,4,6.3,2.48,5.84,12.52,6.81,18.19v472.09c-1.98,13.84-4.68,34.02-22.88,32.78-150.72-36.95-301.28-74.17-451.6-111.45-3.74-1.91-9.9-2.14-13.31-4.26ZM-1596.73,1760.46c-1.39-1.12-3.78-1.43-5.49-2.02l-400.88-69.2c-12.89.8-17.57,9.55-18.39,21.38-1.98,28.6.78,58.48,1.09,87,.77,71.76,1.49,143.4,3,215,.42,19.81-6.3,54.67,15.19,64.63.75.35.82,1.6.95,1.65.59.2,2.19-.79,3.81-.35,61.35,16.73,123.87,30.64,185.78,45.34,67.97,16.15,136.41,31.7,204.45,47.08,8.16-1.47,11.19-8.78,13.05-16.02,3.03-11.79,2.51-26.98,2.76-39.24,1.87-90.4,1.97-180.69,2.92-271.08.21-19.7,5.13-60.7-3.46-77.46-.64-1.25-3.96-6.04-4.78-6.71ZM-1592.44,2189.16l-158-35v33.5l158,38.5v-37Z"/>
      <path class="st2" d="M-1545.44,2237.15c8.37-9.23,7.29-21.88,9.04-33.45v-468.08c-1.32-7.49-.78-17.77-9.64-20.36l-480.4-79.11.99-1.5,89.31-23.14,480.08,72.78c5.87,4.63,10.02,10.82,13.85,17.15l.78,500.22-.97,2.03-103.03,33.46Z"/>
      <path class="st2" d="M-1439.44,1701.66c-1.08-4.88-14.53-21.29-20.96-21.04l-310.05-46.96,135.4-35.39c105.6,18.82,212.61,31.27,317.8,52.21,14.07,2.8,32.58,4.11,40.04,17.96l.67,265.63-162.9,45.1v-277.5Z"/>
      <path class="st2" d="M-1796.02,2207.59c-1.26,1.4-5.82,4.89-4.42,6.55l175.55,45.07c4.42-.13,9.12-8.73,13.17-10.89l19.57,3.85,12.23-12.03c5.6.61,11.92,4.02,17.24,4.76,8.15,1.13,22.32-6.05,30.76-8.8,23.86-7.76,47.8-15.71,71.9-22.86l3.57.95-1,1.97c3.15-.08,6.21,1.26,8.99,2.52,11.13,5.06,19,9.94,24.57,21.43.71,1.46,3.66,9.56,3.4,10.43l-207.16,81.37-294.76-73.28c-5.48-8.82-2.55-20.96,2.56-29.38,11.54-19.03,54.97-28.76,74.96-37.05,15.73,3,31.31,6.8,46.68,11.24,1.15.33,5.55-.69,4.77,2.21-.16.59-1.93,1.23-2.58,1.94Z"/>
      <path class="st2" d="M-1439.44,1984.66l129-37.49c-2.29,6.84-.11,14.72.04,21.45.45,20.41.04,41.17-.6,61.49l-70.73,104.76-57.72,13.29v-163.5Z"/>
      <path d="M-1596.73,1760.46c.82.66,4.14,5.46,4.78,6.71,8.59,16.76,3.67,57.75,3.46,77.46-.95,90.39-1.05,180.68-2.92,271.08-.25,12.26.27,27.45-2.76,39.24-1.86,7.24-4.89,14.55-13.05,16.02-68.04-15.38-136.48-30.94-204.45-47.08-61.9-14.7-124.43-28.61-185.78-45.34-1.62-.44-3.23.55-3.81.35-.13-.05-.2-1.3-.95-1.65-21.49-9.95-14.78-44.81-15.19-64.63-1.51-71.6-2.23-143.24-3-215-.31-28.52-3.07-58.41-1.09-87,.82-11.83,5.5-20.58,18.39-21.38l400.88,69.2c1.71.59,4.1.9,5.49,2.02ZM-1959.45,1733.16c-10.53-2.52-20.67,1.82-22,13.49-2.7,23.75.78,55.62,1.04,79.96.5,45.7,1.21,91.45,2,137,.43,24.8-2.51,55.94,1.2,79.8,1.54,9.9,7.99,14.42,16.76,17.24,23.84,7.67,52.28,13.03,76.98,19.02,83.64,20.28,167.64,39.25,251.5,58.55,11.15-.49,13.1-22.76,12.5-31.06l-5,12.49c-2.2,2.85-5.45,4.82-9.21,4.31-99.6-24.79-200.62-44.46-299.99-70.09-12.58-3.24-29.23-4.33-32.35-19.65-4.26-20.95-1.04-54.12-1.4-76.6-.42-26.12-1.01-52.81-2.08-78.92,3.07-41.86-4.71-87.74-1-129.08.75-8.33,2.96-10.44,9.6-14.36.91-.54,1.98.52,1.43-2.09ZM-1831.71,1756.47c-9.92-4.45-60.86-10.63-75.51-13.05-8.66-1.43-17.32-2.72-25.83-4.17-6.45-1.09-22.03-5.68-25.87.93-.42.73-4.37,11.76-4.39,12.42-.06,1.41.93,3.21.91,5.01-.6,74.66,1.57,149.45,2.99,224,.25,13.14-2.82,44.47,3.91,54.04,1.69,2.4,2.56,4.37,5.48,5.57,10.95,4.52,25.28,6.33,36.78,9.22,79.97,20.09,159.78,37.9,239.06,55.94,13.58,3.09,27.18,6.75,40.65,10.3,6.67-.5,9.53-7.23,10.99-13.15,3.09-12.55,1.93-39.93,2.14-53.84,1-65.73,1.36-130.36,1.91-196.08.12-14.73,4.25-42.73-2.13-55.79-3.48-7.12-14.02-7.11-21.45-8.55-10.37-2.01-21.89-3.87-33.15-5.86-46.69-8.26-93.05-16.14-139.87-24.13-6.49-1.11-11.12-.35-16.63-2.82Z"/>
      <path d="M-1592.44,2189.16v37l-158-38.5v-33.5l158,35ZM-1653.44,2202.16v-18.5l-45-11.49c3.37,4.19-3.07,19.06,1.69,20.8l43.31,9.19ZM-1603.44,2214.16v-18.5l-45-12.5v20.5l45,10.5Z"/>
      <path class="st2" d="M-1831.71,1756.47c5.51,2.47,10.14,1.71,16.63,2.82,46.82,7.99,93.18,15.87,139.87,24.13,11.26,1.99,22.77,3.85,33.15,5.86,7.43,1.44,17.97,1.42,21.45,8.55,6.38,13.06,2.25,41.06,2.13,55.79-.56,65.72-.92,130.35-1.91,196.08-.21,13.92.95,41.29-2.14,53.84-1.46,5.92-4.32,12.66-10.99,13.15-13.47-3.55-27.07-7.21-40.65-10.3-79.28-18.04-159.09-35.86-239.06-55.94-11.5-2.89-25.84-4.7-36.78-9.22-2.92-1.21-3.79-3.17-5.48-5.57-6.73-9.58-3.66-40.9-3.91-54.04-1.43-74.55-3.59-149.34-2.99-224,.01-1.8-.97-3.6-.91-5.01.03-.66,3.97-11.69,4.39-12.42,3.84-6.61,19.42-2.02,25.87-.93,8.52,1.44,17.17,2.74,25.83,4.17,14.65,2.41,65.59,8.6,75.51,13.05Z"/>
      <path class="st2" d="M-1959.45,1733.16c.55,2.61-.52,1.56-1.43,2.09-6.64,3.92-8.85,6.03-9.6,14.36-3.71,41.34,4.06,87.22,1,129.08,1.07,26.11,1.66,52.8,2.08,78.92.36,22.48-2.86,55.64,1.4,76.6,3.12,15.32,19.77,16.41,32.35,19.65,99.37,25.62,200.4,45.3,299.99,70.09,3.76.52,7.01-1.45,9.21-4.31l5-12.49c.6,8.29-1.35,30.57-12.5,31.06-83.86-19.3-167.86-38.27-251.5-58.55-24.7-5.99-53.14-11.35-76.98-19.02-8.77-2.82-15.22-7.34-16.76-17.24-3.71-23.86-.77-55-1.2-79.8-.79-45.55-1.5-91.3-2-137-.26-24.34-3.74-56.21-1.04-79.96,1.33-11.68,11.46-16.02,22-13.49Z"/>
      <polygon class="st2" points="-1603.44 2214.16 -1648.44 2203.66 -1648.44 2183.16 -1603.44 2195.66 -1603.44 2214.16"/>
      <path class="st2" d="M-1653.44,2202.16l-43.31-9.19c-4.75-1.75,1.68-16.62-1.69-20.8l45,11.49v18.5Z"/>
    </g>
  </g>
  <path class="st1" d="M-890.23,427.22c-1.38-15.04-4.53-30.06-5.98-45.02-1.07-11.07,1.79-24.66-4.37-34.63-2.2-3.55-6.02-5.78-7.85-9.15-2.48-4.57-3.62-11.59-6.25-16.75-1.94-3.8-5.71-7.57-7.3-10.7-4.37-8.64-7.16-18.5-12.08-26.92-5.84-10-22.06-23.6-32.47-29.9-.17-.59-.36-1.17-.62-1.7-2.68-5.54-8.53-8.32-13.86-10.73.44-2.69,5.52-1.58,6.22-3.9l.15-23.3.7-.65,25.62-6.39,19.64-29.29.86.43c2.61-7.25,9.27-12.9,12.2-20.05l.04-37.15,14.6-4.56c.05-38.78.69-77.75.2-116.58-.01-.92.34-1.81.3-2.61-.34-7.66-12.28-9.8-18.2-11.01-47.37-9.69-96.63-14.53-144.24-23.38l-64.42,16.54-72.01-10.74-46.54,12.08-4.09,3.57c-.28,32.59.26,65.08.68,97.65.44,34.29.48,68.97,1.84,103.21.12,2.95-.52,7.68.08,10.29.62,2.76,5.52,7.45,8.16,8.53l52.73,13.43.48.56c.73,1.72,1.05,6.9,2.58,7.77l21.63,5.21c-.11.67-.83.87-1.35,1.12-10.51,5.03-31.11,7.96-32.46,22.55-.17,1.87-.01,7.75,1.65,8.72l64.95,16.2c-.16,30.43-29.51,50.35-46.19,72.25-13.87,18.22-16.31,47.82-22.94,69.1-2.03,6.52-.78,2.37-3.53,6.41-5.31,7.79-5.01,13.79-5.74,22.77-10.87,2.82-17.74-4.31-18.98,11.99-5.95,2.44-20.82,4.1-25.49,7.54-1.74,1.28-5.68,8.18-6.08,10.43-.65,3.72,1.39,8.08.31,10.25-1.08,2.18-16.33,10.03-19.59,13.46-6.86,7.2-2,22.95,7.14,26.18-1.71,6.29-1.15,12.07-.1,18.37l-2.99-.5c4.48,2.34,6.79,6.72,12,7.54-5.76,12.67,10.09,17.06,19,19.98-7.49,15.64-4.92,24.06,7.99,34.5,2.85,2.31,10.67,5.99,12.08,7.92,2.55,3.48-.91,8.61-1.83,12.31-.53,2.13.17,4.64-.41,6.59-.61,2.03-2.77,1.99-3.52,2.97-2.76,3.62,1.2,7.48.55,10.01-.46,1.82-4.38,3.52-4.47,6.19l1.67,8.85c-8.9,2.6-3.18,9.78-4.04,15.1-.38,2.35-4.11,4.87-4.8,8.29-.86,4.25,1.3,7.32.78,10.69-.74,4.8-5.13,6.45-3.95,15.02,1.31,9.5.3,5.08-.99,13.12-1.53,9.56,3.25,10.96,3.7,15.08.22,2.04-2.44,7.51-2.31,11.32.23,6.61,4,8.67,4.4,10.69.24,1.22-1.57,3.17-1.82,4.93-1.36,9.47,6.63,11.24,6.98,14.94.2,2.07-1.24,5.7-1.06,9.01.36,6.6,1.49,14.07.59,21-.15,1.16-2.44,3.87-2.94,6.67-.36,2.07.69,4.58-.06,5.77-.44.69-5.55,5.62-6.54,4.03l3.83,8.36c-8.63,7.04-8.59,17.8-12.2,27.78-12.03,33.34-37.48,69.97-40.51,104.49-.96,10.96-.71,25.03-.76,36.28-.04,8.06,1.84,20.36,1.17,27.63-.18,1.98-1.53,3.38-3.54,3.48.08,2.19,3.71,1.71,4,2.01.2.2-1.66,3.81-.07,5.44l-2.93.54v3s2.99-.99,2.99-.99c-1.46,4.02-1.98,10.1-2,14.49-.02,3.27,2.7,6.12-.99,7,2.44,1.95,3.59,7.08,0,8l2.03,3.01-2.04,1,2.01.49c-.03,3.85-4.84,1.02,1.01,4.51l-1.99.5,1.98,3.99-3-.49,2.01,3-2.05,1,2.06,4.48-1.99,1,2.98,2.01-4,.5,4.01,2.01c-3.14.81-1.8,4.47-3.01,6.98l1.53-.24c2.53,4.61-2.13,1.39-2.5,1.75-2.16,2.08,2.7,1.38,2.01,3.49-.35,1.05-2.61-.29-2.01,1.99l2.99,1.53c.32,2.36-4.19.12-3.01,2.47.53,1.05,2.49.61,2.94,2.13-1.26,4.83,1.82,7.63-2.93,10.37,2.36-.34,2.19,2.41,3,4l-5.01,2.02h265l-3.38-7.65c-1.89-.18-2.96-6.75-2.61-7.35.09-.16,2.8,1.5,2.99-.99l-4-2.52,1.83-.6-.83-2.89c1.97-.05,3.58.8,3-2l-3.48.05c-3.17-4.14-.01-9.31-.6-11.43-.34-1.23-2.72-.83-3.77-5.24-1.26-5.27.4-5.52.83-8.93.04-.31-2.97-1.26-2.87-5.05l1.9-.42-1.83-1.45c.19-1.31.6-2.92.52-4.22-1.14-18.65-1.61-41.43-6.33-60.39-4.35-17.48-13.29-35.13-16.9-52.89-3.78-18.6-1.56-34.56-8.69-52.55-.31-.78-3.06.1-.75-3.48-5.06.98-5.09-7.14-4.3-10.82.79-3.71,2-5.87,4.02-8.97,1.03-1.58,3.01-2.18,3.1-2.36.2-.4-.91-1.89-.64-3.11.51-2.33,7.35-14.31,8.99-18.08,6.28-14.43,10.79-29.25,19.41-42.59,2.69-4.17,5.99-7.78,8.52-12.01.99-.69,4.94,2.31,6.63,2.69,4.38.99,22.44,2.55,26.29,1.84,2.52-.46,6.53-2.81,8.72-4.3,10.68-7.26,22.57-32.41,27.44-44.61,3.85-9.64-1.98-11.43-1.83-15.16.03-.8,1.93-3.2,2.14-5.46.06-.63-2.15-11.83-2.47-12.37-.91-1.5-10.22-.92-10.09-8.17l2.05-.54-2.94-2.59,1-5.76-2.06-1.22c1.71-2.77-.14-5.19-.03-7.87.21-5.2,4.01-5.2,2.04-10.54l7.99,1.98-2.99-1.98c9.82-1.2,13.16-9.02,17.2-16.79,10.98,1.5,18.73-.85,28.1-6.41,15.33-9.09,13.14-15.34,18.93-30.07l-4.32-97.32,22.58,1.64c2.13-2.94,2.17-31.43,2.52-37.54,1.75-29.99,2.75-55.82-.01-86.01ZM-1199.48,168.15c-6.88-1.43-15.44-2.32-21.99-4.55-1.75-.6-2.27-1.57-3.27-2.75-4.02-4.73-2.19-20.19-2.34-26.68-.85-36.8-2.15-73.72-1.79-110.58,0-.89-.58-1.78-.54-2.47.02-.32,2.37-5.77,2.63-6.13,2.29-3.26,11.61-1,15.46-.46,5.09.71,10.27,1.35,15.44,2.06,8.76,1.19,39.2,4.24,45.13,6.44,3.29,1.22,6.06.85,9.94,1.39,27.98,3.95,55.7,7.83,83.6,11.91,6.73.98,13.61,1.9,19.81,2.89,4.44.71,10.74.7,12.82,4.22,3.81,6.45,1.35,20.27,1.27,27.54-.33,32.44-.55,64.35-1.14,96.8-.13,6.87.57,20.38-1.28,26.58-.84,2.81-2.46,5.99-6.13,6.44-.44-.32-.89-.58-1.35-.72-2.11-.61-2.01-.16-4.26-.98-2.88-1.04-10.74-3.7-12.33-5.67-.32-.4.54-1.63-.39-2.22-.41-.26-1.6.46-1.86.25l-4.19,4.36c-.12-.02-.23-.05-.35-.07-47.39-8.91-95.09-17.7-142.89-27.62ZM-1015.73,691.71v-1c.65.33.65.67,0,1Z"/>
  <g id="Ypzhzf">
    <g>
      <path class="st0" d="M289.54,1190.77c.66.51.86,2.23,1.92,2.47.76.18,6-.94,8.81-.71,16.58,1.37,5.49,10.14,6.87,17.25.16.83,5.41,8.09,6.48,11.39,2.68,8.27,4.63,21.14,3.34,29.61.6,2,9.53,3.07,11.93,3.63,1.05,3.82-9.8,16.94-7.98,18.96.22.24,4.15-.09,4.83,2.72.4,1.64-1.99,8.91-3,10.66-5.38,9.29-10.81.85-15.82,3.13-.72.33-6.71,6.53-6.83,7.15-.68,3.46,4.95,10.08,8.22,11.44,12.94,5.38,24.89-.56,37.23,12.28,4.5,4.69,19.49,31.87,15.93,36.72-1.53,2.08-10.1-.19-9.33,5.28.68,4.86,12.12,16.57,13.55,22.36,2.8,11.31,1.36,31.16,2.22,43.78,1.23,18.09,3.66,30.76,2.09,49.12-.15,1.74,1.52,3.95.49,5.42-1.71,2.45-9.73,1.67-11.66-.46-1.52-1.68-12.84-34.11-14.21-38.79-3.98-13.56-4.03-30.65-12.18-41.84-1.46-2.01-3.35-3.99-5.28-6.69-2.03-2.83-15.28-21.21-16.76-21.23-2.24,1.88-3.94,4.81-2.78,7.68,1.36,3.35,9.04,12.08,11.69,16.39,16.35,26.5,23.05,54.21,21.57,85.41-1.63,34.54-5.89,69.32-7.03,103.97-.28,8.49.29,17.06.04,25.55,3.87,3.82,32.78-19.51,38.47-5.98,1.74,4.14-2.35,26.59-4.02,31.94-2.53,8.11-7.2,14.72-13.29,20.53,4.84,8.15,14.35,17.83,15.43,27.49.41,3.66-.16,15.62-.6,19.51-.89,7.86-8.52,11.7-14.98,15.02-30.35,15.59-59.18,12.27-91.53,9.49-19.44-1.67-32-1.04-51.03-7.97-7.61-2.77-10.39-4.29-11.33-12.67s.25-18.12.08-26.66l12.62-22.22c-8.54-7.99-23.64-32.26-19.67-43.83,1.5-4.37,15.63-4.2,19.38-3.7s8.71,4.18,12.45,5.55c2.8,1.02,6.21,1.17,9,2.49l-2.01-10.48,2,.5c-1.4-10.38-1.12-21.11-2.01-31.5-4.06-47.5-21.02-118.74-4.76-162.79l21.39-40.77c-1.85-2.8-4.71-7.84-8.32-4.64-5.51,8.41-10.11,17.53-15.45,26.03-2.16,3.43-7.53,8.42-9.07,11.93-4.09,9.33-4.89,29.4-6.86,40.14-.4,2.19-2.06,4.41-2.61,7.39-1.61,8.67-2.35,17.52-3.78,26.22-1.27,2.22-18.35,5.86-18.49-.55.76-5.8-.9-11.46-1.13-16.97-.36-8.58,1.11-18.52,1.15-26.96.05-11.63-2.21-39.89,1.07-48.93,2.35-6.47,10.44-15.44,11.87-20.14.61-2.01-.56-1.23-1.43-1.5-8.89-2.8-13.4,2.01-11.31-12.24,1.38-9.4,15.49-34.31,22.83-40.17,1.18-.94,10.83-7.18,11.64-7.36,6.73-1.53,18.72,1.41,24.6-.4,1.17-.36,7.25-8.36,7.43-9.47.48-2.97-4.46-8.53-7.03-9.61-4.76-2-14.55,3.71-18.61-6.32-4.39-10.84,4.8-12.11,4.88-15.87s-9.4-15.88-8.98-18c1.73-2.71,10.73-1.1,12.11-3.13,2.64-3.88,1.36-15.66,2.13-20.66s6.23-13.48,6.51-16.39c.44-4.55-6.31-10.82.18-15.93,4.75-3.75,20.55.25,22.1-.85,2.71-1.92-.79-7.36,7.57-8.47,9.22-1.23,10.69,1.38,17.05,6.26ZM279.04,1615.26c3.64-.32,12,2.04,12.85-2.36l-8.01-61.5-1.87,9.61c-1.3,11.3-1.5,22.57-2.13,33.87-.18,3.16-2.8,19.13-.84,20.37Z"/>
      <path class="st0" d="M521.32,1255.31l13.9,3.11c1.5,2.09-7.73,12.56-7.92,13.63-.29,1.65,9.19,8.86,2.87,15.8-.6.65-7.41,5.24-8.38,5.62-5.54,2.2-7.95-2.95-13.26,2.25-4.3,4.2-2.02,10.42,1.71,14.17s14.02,2.64,20.24,3.76c10.23,1.84,17.06,5.39,22.4,14.6,1.55,2.67,7.04,16.86,7.38,19.62.3,2.43.39,11.87-.21,13.84-.87,2.83-5.53,2.72-5.69,4.16-.2,1.86,7.27,16.21,8.35,19.56,1.85,5.68,1.33,14.13,1.52,20.48.71,24.67,1.2,49.25,1.02,74-.46,3.76-9.79,3.4-12.33,2.52-1.71-.59-8.14-30.68-9.19-35.01-1.51-6.25-4.1-24.71-6.17-28.75-3.01-5.87-8.24-13.52-11.76-19.32-4.78-7.89-9.97-15.46-14.53-23.47-3.1-1.99-5.1,4.8-5.11,7.03-.03,6.97,5.88,10.42,9.5,15.59,7.47,10.68,13.99,23.36,18.31,35.69,10.39,29.65,3.09,50.74,3.23,80.78.08,17.42-1.25,34.14-2.95,51.95-1.06,11.16-1.96,22.35-3,33.49,12.46-9.75,28.31-19.05,28.06,5.51-.17,16.91-4.37,33.92-14.62,47.46-2.32,3.06-5.06.61-2.29,6.37,5.22,10.85,13.95,14.13,14.84,28.15.14,2.21.19,9.78.07,11.99-.51,8.74-20.11,25.1-28.18,27.91-3.67,1.28-10.45,2.28-14.4,2.6-34.31,2.75-59.64-1.01-92.03-12.94-6.08-2.24-19.05-6.63-21.21-12.79-.85-2.42-4.24-26.78-3.83-28.3.55-2.02,4.95-6.32,6.39-8.64,4.13-6.7,7.41-13.89,11.25-20.75-14.27-10.27-18.86-31.29-20.12-47.94,14.34-5.67,27.84,6.56,42.06,6.39.24-8.14-.3-16.3-1.13-24.38-4.8-46.83-18.65-87.34-10.58-134.83,3.51-20.65,9.18-31.48,18.19-49.81,2.94-5.98,11.29-14.79,3.09-21.05-4.81-3.68-5.05,3.95-6.52,6.62-5.17,9.36-13.47,18.69-18.87,28.13l-19.11,72.64c-2.06,3.06-8.99.17-12.07.68-2.88-30.09.73-60.36-.07-90.54,5.22-6.52,9.79-13.71,13.07-21.44-2.83-.25-13.27-1.04-14.59-2.98,5-21.57,12.61-46.86,36.81-53.31,9.34-2.49,24.76.59,28.33-10.68,3.93-12.38-12.74-6.57-16.58-7.47-4.63-1.09-9.8-9.54-9.83-14.06-.03-3.73,3.84-6.27,3.71-7.82-.3-3.56-8.89-12.47-8.82-16.22.07-4.39,13.12-7.42,16.94-7.51-.19-19.47,8.51-37.27,13.29-55.71,7.09-4.23,13.95-8.77,22.36-10.14,3.38-.55,13.62-1.43,16.81-1.02,7.36.94,15.05,4.87,18.08,11.92,2.61,6.08,6.71,22.48,8.4,29.6,2.28,9.58,3.39,19.46,3.2,29.3ZM478.37,1602.27c2.32,1.88,11.09.86,11.77-1.48-1.24-13.2-.19-28.67-3.2-41.6-1.44-6.19-5.98-11.21-6.73-2.29-1.26,15.09-.63,30.35-1.84,45.38Z"/>
    </g>
  </g>
</svg>